<?xml version="1.0" encoding="UTF-8"?>
<level>
  <owner>Fistachka</owner>
  <repo>parus3</repo>
  <version>v1.0.9</version>
  <next number="1" owner="Fistachka" repo="parus4"/>
  <readme>
    <ru>92ddca363ccc016208a6a86d28c7a70e6d09c5cc9b10cc2e2c3cdad0d6d02d36</ru>
    <en>dfd59451b16e0d74c8562d855cb294d3a1bfecc387683245ac98cb76fb3f8fd3</en>
  </readme>
  <license>b1b99f5538d1fd3702219bff50c665196dfa42f6ee755c37fe41a6178d6bc6e5</license>
  <exercise number="1">
    <scale>minor</scale>
    <cadenceVariant>harmonic</cadenceVariant>
    <bpm>120</bpm>
    <lowestNote>6</lowestNote>
    <tonalities>10</tonalities>
    <video name="17t.mp4" size="1554523" type="video/mp4" volume="0.5">8c5110fe3823065d83d74b6ac6fdf9a05d9e586db07bd3ab81cc89278137b65e</video>
    <notes>
      <note number="1" values="38" ticks="745" durationTicks="47" ppq="96" velocity="0.819"/>
      <note number="2" values="28" ticks="793" durationTicks="47" ppq="96" velocity="0.772"/>
      <note number="3" values="38" ticks="841" durationTicks="95" ppq="96" velocity="0.827"/>
      <note number="4" values="28" ticks="937" durationTicks="73" ppq="96" velocity="0.772"/>
      <note number="5" values="28" ticks="1032" durationTicks="96" ppq="96" velocity="0.827"/>
      <note number="6" values="18" ticks="1129" durationTicks="47" ppq="96" velocity="0.78"/>
      <note number="7" values="79" ticks="1176" durationTicks="96" ppq="96" velocity="0.827"/>
      <note number="8" values="18" ticks="1272" durationTicks="121" ppq="96" velocity="0.756"/>
      <note number="9" values="68" ticks="1397" durationTicks="136" ppq="96" velocity="0.756"/>
    </notes>
  </exercise>
  <exercise number="2">
    <scale>chromaticminor</scale>
    <cadenceVariant>harmonic</cadenceVariant>
    <bpm>120</bpm>
    <lowestNote>6</lowestNote>
    <tonalities>10</tonalities>
    <video name="18.mp4" size="1961232" type="video/mp4" volume="0.5">d14ab00aa1cf794f17cc6b52be54d16c1347c3a29b61a87982f5c5d570fe6122</video>
    <notes>
      <note number="1" values="18" ticks="198" durationTicks="74" ppq="96" velocity="0.819"/>
      <note number="2" values="18" ticks="295" durationTicks="94" ppq="96" velocity="0.776"/>
      <note number="3" values="38" ticks="391" durationTicks="95" ppq="96" velocity="0.827"/>
      <note number="4" values="28" ticks="485" durationTicks="47" ppq="96" velocity="0.778"/>
      <note number="5" values="198" ticks="536" durationTicks="92" ppq="96" velocity="0.827"/>
      <note number="6" values="28" ticks="630" durationTicks="122" ppq="96" velocity="0.781"/>
    </notes>
  </exercise>
  <exercise number="3">
    <scale>minor</scale>
    <cadenceVariant>harmonic</cadenceVariant>
    <bpm>120</bpm>
    <lowestNote>6</lowestNote>
    <tonalities>10</tonalities>
    <video name="19.mp4" size="2602906" type="video/mp4" volume="0.5">67839e3c3514973a9109f8186e7393a48e5e1c02f86d8d823b5ac9df75ea4171</video>
    <notes>
      <note number="1" values="38" ticks="190" durationTicks="48" ppq="96" velocity="0.819"/>
      <note number="2" values="28" ticks="239" durationTicks="47" ppq="96" velocity="0.772"/>
      <note number="3" values="38" ticks="285" durationTicks="96" ppq="96" velocity="0.827"/>
      <note number="4" values="28" ticks="383" durationTicks="73" ppq="96" velocity="0.772"/>
      <note number="5" values="28" ticks="478" durationTicks="98" ppq="96" velocity="0.827"/>
      <note number="6" values="18" ticks="576" durationTicks="92" ppq="96" velocity="0.78"/>
      <note number="7" values="79" ticks="671" durationTicks="47" ppq="96" velocity="0.827"/>
      <note number="8" values="18" ticks="720" durationTicks="95" ppq="96" velocity="0.756"/>
      <note number="9" values="68" ticks="815" durationTicks="95" ppq="96" velocity="0.756"/>
    </notes>
  </exercise>
  <exercise number="4">
    <scale>chromaticminor</scale>
    <cadenceVariant>harmonic</cadenceVariant>
    <bpm>120</bpm>
    <lowestNote>6</lowestNote>
    <tonalities>10</tonalities>
    <video name="20.mp4" size="1685071" type="video/mp4" volume="0.5">3ae4287b4bcd9cc5f927189e04c905a050888db0320950c984a7ec2dcf1db1c7</video>
    <notes>
      <note number="1" values="18" ticks="112" durationTicks="72" ppq="96" velocity="0.819"/>
      <note number="2" values="18" ticks="208" durationTicks="94" ppq="96" velocity="0.772"/>
      <note number="3" values="38" ticks="304" durationTicks="47" ppq="96" velocity="0.827"/>
      <note number="4" values="28" ticks="352" durationTicks="93" ppq="96" velocity="0.772"/>
      <note number="5" values="198" ticks="448" durationTicks="92" ppq="96" velocity="0.827"/>
      <note number="6" values="28" ticks="544" durationTicks="95" ppq="96" velocity="0.827"/>
    </notes>
  </exercise>
  <exercise number="5">
    <scale>minor</scale>
    <cadenceVariant>harmonic</cadenceVariant>
    <bpm>120</bpm>
    <lowestNote>6</lowestNote>
    <tonalities>10</tonalities>
    <video name="21t.mp4" size="1268316" type="video/mp4" volume="0.5">6e6ae4233a6384ff41a43690d329d338bfc54b489fbb148a2477a41313905cd9</video>
    <notes>
      <note number="1" values="48" ticks="174" durationTicks="46" ppq="96" velocity="0.819"/>
      <note number="2" values="38" ticks="223" durationTicks="47" ppq="96" velocity="0.772"/>
      <note number="3" values="48" ticks="271" durationTicks="48" ppq="96" velocity="0.827"/>
      <note number="4" values="38" ticks="319" durationTicks="143" ppq="96" velocity="0.772"/>
      <note number="5" values="48" ticks="462" durationTicks="95" ppq="96" velocity="0.772"/>
      <note number="6" values="38" ticks="558" durationTicks="95" ppq="96" velocity="0.772"/>
      <note number="7" values="28" ticks="654" durationTicks="47" ppq="96" velocity="0.772"/>
      <note number="8" values="38" ticks="708" durationTicks="89" ppq="96" velocity="0.772"/>
      <note number="9" values="68" ticks="799" durationTicks="95" ppq="96" velocity="0.772"/>
    </notes>
  </exercise>
  <exercise number="6">
    <scale>chromaticminor</scale>
    <cadenceVariant>harmonic</cadenceVariant>
    <bpm>120</bpm>
    <lowestNote>6</lowestNote>
    <tonalities>10</tonalities>
    <video name="22.mp4" size="1775363" type="video/mp4" volume="0.5">2e7594021b6820fb6504b1188c327fb8883783e92b7e20bbdc8a04fa0b47c79a</video>
    <notes>
      <note number="1" values="18" ticks="140" durationTicks="73" ppq="96" velocity="0.819"/>
      <note number="2" values="18" ticks="236" durationTicks="95" ppq="96" velocity="0.772"/>
      <note number="3" values="38" ticks="332" durationTicks="48" ppq="96" velocity="0.827"/>
      <note number="4" values="28" ticks="380" durationTicks="94" ppq="96" velocity="0.772"/>
      <note number="5" values="198" ticks="477" durationTicks="92" ppq="96" velocity="0.827"/>
      <note number="6" values="28" ticks="573" durationTicks="92" ppq="96" velocity="0.78"/>
    </notes>
  </exercise>
  <exercise number="7">
    <scale>minor</scale>
    <cadenceVariant>harmonic</cadenceVariant>
    <bpm>120</bpm>
    <lowestNote>6</lowestNote>
    <tonalities>10</tonalities>
    <video name="23t.mp4" size="1299764" type="video/mp4" volume="0.5">1d8b5c42fcc06ec1a9473b61121dbcc1edba0d1750936d4212a8d31a6a882628</video>
    <notes>
      <note number="1" values="48" ticks="200" durationTicks="48" ppq="96" velocity="0.819"/>
      <note number="2" values="38" ticks="248" durationTicks="47" ppq="96" velocity="0.772"/>
      <note number="3" values="48" ticks="297" durationTicks="95" ppq="96" velocity="0.827"/>
      <note number="4" values="38" ticks="392" durationTicks="47" ppq="96" velocity="0.772"/>
      <note number="5" values="48" ticks="441" durationTicks="143" ppq="96" velocity="0.827"/>
      <note number="6" values="38" ticks="585" durationTicks="47" ppq="96" velocity="0.78"/>
      <note number="7" values="28" ticks="632" durationTicks="97" ppq="96" velocity="0.827"/>
      <note number="8" values="38" ticks="729" durationTicks="93" ppq="96" velocity="0.8"/>
      <note number="9" values="68" ticks="824" durationTicks="95" ppq="96" velocity="0.8"/>
    </notes>
  </exercise>
  <exercise number="8">
    <scale>minor</scale>
    <cadenceVariant>harmonic</cadenceVariant>
    <bpm>120</bpm>
    <lowestNote>6</lowestNote>
    <tonalities>10</tonalities>
    <video name="24.mp4" size="2499972" type="video/mp4" volume="0.5">9ce4daa2ff4c609027c4a92731c51db694d76f5b7b4491159a4887162ee93446</video>
    <notes>
      <note number="1" values="18" ticks="208" durationTicks="96" ppq="96" velocity="0.819"/>
      <note number="2" values="79" ticks="305" durationTicks="95" ppq="96" velocity="0.772"/>
      <note number="3" values="18" ticks="401" durationTicks="95" ppq="96" velocity="0.827"/>
      <note number="4" values="58" ticks="497" durationTicks="69" ppq="96" velocity="0.772"/>
      <note number="5" values="48" ticks="575" durationTicks="89" ppq="96" velocity="0.827"/>
      <note number="6" values="48" ticks="672" durationTicks="95" ppq="96" velocity="0.827"/>
    </notes>
  </exercise>
</level>
